<?xml version="1.0" encoding="UTF-8" standalone="no"?>
<!-- Created with Inkscape (http://www.inkscape.org/) -->

<svg
        xmlns:dc="http://purl.org/dc/elements/1.1/"
        xmlns:cc="http://creativecommons.org/ns#"
        xmlns:rdf="http://www.w3.org/1999/02/22-rdf-syntax-ns#"
        xmlns="http://www.w3.org/2000/svg"
        xmlns:sodipodi="http://sodipodi.sourceforge.net/DTD/sodipodi-0.dtd"
        xmlns:inkscape="http://www.inkscape.org/namespaces/inkscape"
        width="157.95291mm"
        height="158.00137mm"
        viewBox="0 0 157.95291 158.00137"
        version="1.1"
        id="svg8"
        inkscape:version="0.92.3 (2405546, 2018-03-11)"
        sodipodi:docname="btn_building.svg"
        inkscape:export-filename="C:\Users\Felix\OneDrive - Technische Universitat Munchen\Masterarbeit\models\btn_lidar.png"
        inkscape:export-xdpi="96"
        inkscape:export-ydpi="96">
  <defs
     id="defs2" />
  <sodipodi:namedview
     id="base"
     pagecolor="#ffffff"
     bordercolor="#666666"
     borderopacity="1.0"
     inkscape:pageopacity="0.0"
     inkscape:pageshadow="2"
     inkscape:zoom="1.4"
     inkscape:cx="808.32183"
     inkscape:cy="37.694069"
     inkscape:document-units="mm"
     inkscape:current-layer="layer1"
     showgrid="false"
     fit-margin-top="0"
     fit-margin-left="0"
     fit-margin-right="0"
     fit-margin-bottom="0"
     inkscape:window-width="3840"
     inkscape:window-height="2066"
     inkscape:window-x="-11"
     inkscape:window-y="-11"
     inkscape:window-maximized="1" />
  <metadata
     id="metadata5">
    <rdf:RDF>
      <cc:Work
         rdf:about="">
        <dc:format>image/svg+xml</dc:format>
        <dc:type
           rdf:resource="http://purl.org/dc/dcmitype/StillImage" />
        <dc:title></dc:title>
      </cc:Work>
    </rdf:RDF>
  </metadata>
  <g
     inkscape:label="Ebene 1"
     inkscape:groupmode="layer"
     id="layer1"
     transform="translate(161.95212,-98.543819)">
    <g
       id="g898">
      <path
         inkscape:connector-curvature="0"
         id="path850"
         d="m -130.41771,256.1821 c -8.69446,-0.96696 -15.58091,-4.15991 -21.29422,-9.87323 -5.1087,-5.10869 -7.89074,-10.42971 -9.47347,-18.11922 -0.51716,-2.51259 -0.59575,-7.77641 -0.71628,-47.97778 -0.14142,-47.16215 -0.0717,-50.01213 1.36693,-55.91527 2.86436,-11.75297 12.56293,-21.44975 24.29621,-24.29172 5.72004,-1.385481 8.47574,-1.461061 53.269444,-1.461061 44.79371,0 47.54941,0.0756 53.26945,1.461061 10.76191,2.60669 20.0807696,11.17659 23.6019096,21.70503 1.98119,5.92388 1.91725,4.27384 2.06192,53.2103 0.0916,30.98182 0.0126,46.37361 -0.25166,49.03611 -0.95639,9.63588 -3.94616,16.35994 -9.9387796,22.35255 -5.91775,5.91775 -12.47931,8.88662 -21.89768,9.90792 -4.23149,0.45885 -90.140274,0.42725 -94.293774,-0.0347 z m 49.636114,-35.26827 c 5.30626,-1.12587 8.85929,-4.72244 9.82476,-9.94515 0.95517,-5.16701 -1.87822,-10.60705 -6.72059,-12.90337 -1.6678,-0.79089 -2.41092,-0.9201 -5.29167,-0.9201 -3.0081,0 -3.56074,0.10608 -5.39531,1.03564 -2.38767,1.20982 -4.58494,3.45421 -5.66016,5.78155 -1.08715,2.35314 -1.09155,7.6394 -0.008,9.98293 1.54053,3.33288 4.53572,5.80147 8.25012,6.79962 2.40847,0.64721 2.70032,0.65707 5.00117,0.16888 z m -12.77083,-29.05337 c 6.227,-5.90575 14.80781,-5.8523 21.62817,0.13471 1.12695,0.98926 2.29728,1.79865 2.60074,1.79865 0.30346,0 1.88172,-1.29816 3.50725,-2.8848 2.88338,-2.8144 2.95551,-2.92557 2.95551,-4.55556 0,-1.52912 -0.14207,-1.80902 -1.6757,-3.30159 -8.69043,-8.45771 -21.6845,-9.95115 -32.02978,-3.68125 -1.06435,0.64506 -2.880684,2.05073 -4.036294,3.12371 -2.1282,1.97602 -2.30617,2.39367 -2.15786,5.06387 0.042,0.75685 3.62393,4.63522 5.149834,5.57609 1.34842,0.83144 2.08072,0.60157 4.05813,-1.27383 z m -16.645564,-12.85969 c 0.32679,-0.18105 1.54667,-1.22528 2.71084,-2.32053 11.701654,-11.00895 29.732134,-12.85725 43.395884,-4.4485 1.55116,0.95459 4.13062,2.9422 5.73212,4.4169 1.60151,1.47471 3.06197,2.68129 3.24546,2.68129 0.85185,0 2.15534,-1.02821 4.51826,-3.56408 2.49928,-2.68221 2.55955,-2.78984 2.38986,-4.26806 -0.15364,-1.33838 -0.47546,-1.79845 -2.74033,-3.91753 -8.68713,-8.12793 -19.97055,-12.58784 -31.84681,-12.58784 -12.14471,0 -23.997074,4.75376 -32.367364,12.98193 -2.23437,2.19644 -2.38125,2.43792 -2.38125,3.9151 0,1.50245 0.13385,1.70814 2.9331,4.50738 2.97202,2.97202 3.34659,3.19318 4.41023,2.60394 z m -11.14165,-17.4984 c 11.74782,-10.81971 26.927244,-16.14599 42.639794,-14.96178 7.68302,0.57904 13.79303,2.27593 20.95436,5.8195 5.09822,2.5227 9.18111,5.32089 13.74362,9.41914 1.87384,1.68317 3.34617,2.73403 3.83057,2.73403 0.51445,0 1.75694,-0.97585 3.58942,-2.81914 2.75783,-2.7741 2.80146,-2.84565 2.7304,-4.47828 -0.0828,-1.90255 -0.74367,-2.71235 -5.54956,-6.80026 -10.10223,-8.59299 -22.66145,-14.05035 -35.80452,-15.55816 -5.73718,-0.65819 -15.7117,-0.24343 -21.03385,0.87462 -12.733564,2.67501 -23.685574,8.43881 -33.384554,17.56955 -2.3102,2.17486 -2.38125,2.29326 -2.38125,3.96863 0,1.68488 0.0671,1.79396 2.75808,4.48496 2.06231,2.06231 2.99525,2.75808 3.6982,2.75808 0.68952,0 1.81158,-0.8026 4.20929,-3.01089 z"
         style="fill:#146dc9;fill-opacity:1;stroke-width:0.35277778" />
      <rect
         y="121.22971"
         x="-149.4789"
         height="113.20387"
         width="124.73214"
         id="rect894"
         style="opacity:1;fill:#146dc9;fill-opacity:1;stroke:none;stroke-width:6.98400021;stroke-miterlimit:4;stroke-dasharray:none;stroke-dashoffset:0;stroke-opacity:1;paint-order:stroke fill markers" />
    </g>
    <g
       id="g828"
       transform="matrix(0.24631521,0,0,0.24631521,-146.03236,113.33062)">
	
	<g
   id="g842">
  <path
     style="clip-rule:evenodd;fill:#ffffff;fill-opacity:1;fill-rule:evenodd"
     inkscape:connector-curvature="0"
     d="M 218.63,147.116 185.1,130.53 64.613,154.001 V 503.613 H 218.63 Z m -69.018,24.034 c 5.229,-0.746 10.48,-1.479 15.743,-2.236 0,5.793 0,11.586 0,17.33 -5.263,0.696 -10.514,1.406 -15.743,2.114 0,-5.719 0,-11.465 0,-17.208 z m -35.068,66.793 c 5.036,-0.563 10.096,-1.13 15.204,-1.694 0,5.671 0,11.321 0,16.967 -5.107,0.542 -10.168,1.058 -15.204,1.575 0,-5.598 0,-11.223 0,-16.848 z M 96.831,437.084 c -4.95,0.076 -9.842,0.143 -14.709,0.22 0,-5.517 0,-11.045 0,-16.594 4.867,-0.1 9.759,-0.222 14.709,-0.332 0,5.605 0,11.154 0,16.706 z m 0,-55.697 c -4.95,0.199 -9.842,0.398 -14.709,0.607 0,-5.538 0,-11.044 0,-16.593 4.867,-0.245 9.759,-0.465 14.709,-0.729 0,5.571 0,11.137 0,16.715 z m 0,-29.076 c -4.95,0.266 -9.842,0.541 -14.709,0.829 0,-5.524 0,-11.042 0,-16.593 4.867,-0.299 9.759,-0.612 14.709,-0.938 0,5.577 0,11.13 0,16.702 z m 0,-61.623 c -4.95,0.421 -9.842,0.842 -14.709,1.285 0,-5.526 0,-11.055 0,-16.606 4.867,-0.456 9.759,-0.926 14.709,-1.394 0,5.6 0,11.127 0,16.715 z m 0,-34.058 c -4.95,0.517 -9.842,1.012 -14.709,1.528 0,-5.53 0,-11.033 0,-16.585 4.867,-0.542 9.759,-1.081 14.709,-1.647 0,5.602 0,11.152 0,16.704 z m 0,-31.533 c -4.95,0.589 -9.842,1.178 -14.709,1.741 0,-5.516 0,-11.044 0,-16.596 4.867,-0.611 9.759,-1.25 14.709,-1.886 0,5.611 0,11.164 0,16.741 z m 23.7,155.279 c -5.036,0.203 -10.072,0.418 -15.072,0.624 0,-5.572 0,-11.154 0,-16.776 5,-0.228 10.036,-0.493 15.072,-0.759 0,5.65 0,11.289 0,16.911 z m 0,-91.744 c -5.036,0.423 -10.072,0.854 -15.072,1.3 0,-5.578 0,-11.152 0,-16.776 5,-0.48 10.036,-0.951 15.072,-1.442 0,5.672 0,11.271 0,16.918 z m 20.237,119.995 c -5.155,0.144 -10.262,0.286 -15.369,0.432 0,-5.622 0,-11.267 0,-16.915 5.107,-0.199 10.214,-0.388 15.369,-0.563 0,5.69 0,11.375 0,17.046 z m 0.721,-138.886 c 5.18,-0.491 10.406,-0.997 15.635,-1.489 0,5.743 0,11.464 0,17.186 -5.229,0.466 -10.455,0.912 -15.635,1.357 0,-5.672 0,-11.357 0,-17.054 z m 23.866,30.706 c 0,5.791 0,11.537 0,17.305 -5.263,0.348 -10.514,0.721 -15.743,1.106 0,-5.722 0,-11.393 0,-17.137 5.229,-0.422 10.48,-0.853 15.743,-1.274 z m 0,166.285 c -5.263,0 -10.514,0 -15.743,0 0,-5.682 0,-11.354 0,-17.102 5.229,-0.043 10.48,-0.093 15.743,-0.143 0,5.792 0,11.54 0,17.245 z m 0.168,-58.801 c -5.276,0.153 -10.539,0.299 -15.743,0.469 0,-5.722 0,-11.414 0,-17.164 5.204,-0.176 10.466,-0.369 15.743,-0.563 0,5.769 0,11.541 0,17.258 z m 1.178,-158.548 c -5.298,0.566 -10.563,1.105 -15.79,1.647 0,-5.696 0,-11.417 0,-17.161 5.226,-0.588 10.491,-1.177 15.79,-1.766 0,5.793 0,11.537 0,17.28 z"
     id="path824" />
  <path
     style="clip-rule:evenodd;fill:#ffffff;fill-opacity:1;fill-rule:evenodd"
     inkscape:connector-curvature="0"
     d="M 376.672,17.783 221.082,48.066 V 503.613 H 239.42 447.387 V 52.778 Z m -46.206,52.888 c 6.776,-0.973 13.604,-1.935 20.478,-2.921 0,7.573 0,15.107 0,22.594 -6.874,0.912 -13.701,1.827 -20.478,2.728 0,-7.44 0,-14.902 0,-22.401 z m -45.703,86.973 c 6.598,-0.722 13.184,-1.457 19.816,-2.211 0,7.391 0,14.756 0,22.122 -6.633,0.686 -13.219,1.371 -19.816,2.045 0,-7.319 0,-14.616 0,-21.956 z m -23.039,259.351 c -6.439,0.077 -12.821,0.177 -19.178,0.276 0,-7.201 0,-14.372 0,-21.612 6.356,-0.133 12.738,-0.278 19.178,-0.443 0,7.275 0,14.516 0,21.779 z m 0,-72.563 c -6.439,0.266 -12.821,0.541 -19.178,0.829 0,-7.201 0,-14.411 0,-21.633 6.356,-0.298 12.738,-0.636 19.178,-0.962 0,7.297 0,14.519 0,21.766 z m 0,-37.868 c -6.439,0.383 -12.821,0.756 -19.178,1.08 0,-7.175 0,-14.349 0,-21.594 6.356,-0.408 12.738,-0.807 19.178,-1.228 0,7.274 0,14.495 0,21.742 z m 0,-80.217 c -6.439,0.564 -12.821,1.105 -19.178,1.647 0,-7.189 0,-14.385 0,-21.585 6.356,-0.61 12.738,-1.224 19.178,-1.838 0,7.293 0,14.517 0,21.776 z m 0,-44.368 c -6.439,0.683 -12.821,1.346 -19.178,2.007 0,-7.187 0,-14.386 0,-21.608 6.356,-0.732 12.738,-1.432 19.178,-2.139 0,7.269 0,14.515 0,21.74 z m 0,-41.065 c -6.439,0.757 -12.821,1.526 -19.178,2.283 0,-7.175 0,-14.372 0,-21.607 6.356,-0.793 12.738,-1.623 19.178,-2.44 0,7.295 0,14.517 0,21.764 z m 30.861,202.232 c -6.597,0.275 -13.134,0.539 -19.637,0.814 0,-7.27 0,-14.541 0,-21.858 6.503,-0.338 13.04,-0.661 19.637,-0.986 0,7.366 0,14.686 0,22.03 z m 0,-119.516 c -6.597,0.588 -13.134,1.155 -19.637,1.719 0,-7.271 0,-14.54 0,-21.837 6.503,-0.61 13.04,-1.249 19.637,-1.86 0,7.341 0,14.684 0,21.978 z m 26.355,156.285 c -6.708,0.199 -13.388,0.388 -20.034,0.564 0,-7.341 0,-14.681 0,-22.05 6.646,-0.226 13.326,-0.491 20.034,-0.746 0,7.463 0,14.849 0,22.232 z m 0.938,-180.873 c 6.754,-0.635 13.531,-1.273 20.333,-1.935 0,7.487 0,14.95 0,22.412 -6.802,0.589 -13.579,1.178 -20.333,1.766 0,-7.389 0,-14.805 0,-22.243 z m 31.065,40.032 c 0,7.51 0,15.008 0,22.473 -6.874,0.492 -13.701,0.984 -20.478,1.465 0,-7.438 0,-14.853 0,-22.315 6.777,-0.542 13.604,-1.084 20.478,-1.623 z m 0,216.504 c -6.874,0 -13.701,0 -20.478,0 0,-7.384 0,-14.803 0,-22.275 6.776,-0.079 13.604,-0.122 20.478,-0.166 0,7.529 0,15.002 0,22.441 z m 0.215,-76.546 c -6.873,0.21 -13.7,0.369 -20.502,0.564 0,-7.419 0,-14.859 0,-22.344 6.802,-0.227 13.629,-0.465 20.502,-0.74 0,7.54 0,15.009 0,22.52 z m 1.506,-206.464 c -6.875,0.71 -13.728,1.406 -20.519,2.114 0,-7.438 0,-14.842 0,-22.329 6.791,-0.78 13.644,-1.537 20.519,-2.283 0,7.513 0,15.011 0,22.498 z"
     id="path826" />
</g>

</g>
  </g>
</svg>
