<?xml version="1.0" encoding="UTF-8" standalone="no"?>
<!-- Generator: Adobe Illustrator 19.0.0, SVG Export Plug-In . SVG Version: 6.00 Build 0)  -->

<svg
        xmlns:dc="http://purl.org/dc/elements/1.1/"
        xmlns:cc="http://creativecommons.org/ns#"
        xmlns:rdf="http://www.w3.org/1999/02/22-rdf-syntax-ns#"
        xmlns="http://www.w3.org/2000/svg"
        xmlns:sodipodi="http://sodipodi.sourceforge.net/DTD/sodipodi-0.dtd"
        xmlns:inkscape="http://www.inkscape.org/namespaces/inkscape"
        version="1.1"
        id="Layer_1"
        x="0px"
        y="0px"
        viewBox="0 0 502.596 502.596"
        xml:space="preserve"
        sodipodi:docname="btn_settings.svg"
        style="enable-background:new 0 0 502.596 502.596;"
        inkscape:version="0.92.3 (2405546, 2018-03-11)"><metadata
   id="metadata49"><rdf:RDF><cc:Work
       rdf:about=""><dc:format>image/svg+xml</dc:format><dc:type
         rdf:resource="http://purl.org/dc/dcmitype/StillImage" /><dc:title></dc:title></cc:Work></rdf:RDF></metadata><defs
   id="defs47"><filter
     style="color-interpolation-filters:sRGB;"
     inkscape:label="Greyscale"
     id="filter4609"><feColorMatrix
       values="0.21 0.72 0.072 -0.05 0 0.21 0.72 0.072 -0.05 0 0.21 0.72 0.072 -0.05 0 0 0 0 1 0 "
       id="feColorMatrix4607"
       result="fbSourceGraphic" /><feColorMatrix
       result="fbSourceGraphicAlpha"
       in="fbSourceGraphic"
       values="0 0 0 -1 0 0 0 0 -1 0 0 0 0 -1 0 0 0 0 1 0"
       id="feColorMatrix4863" /><feColorMatrix
       id="feColorMatrix4865"
       values="0 0.52 0.072 -0.05 0 0 0.52 0.072 -0.05 0 0 0.52 0.072 -0.05 0 0 0 0 1 0 "
       in="fbSourceGraphic" /></filter><filter
     style="color-interpolation-filters:sRGB;"
     inkscape:label="Greyscale"
     id="filter4613"><feColorMatrix
       values="0.21 0.72 0.072 -0.05 0 0.21 0.72 0.072 -0.05 0 0.21 0.72 0.072 -0.05 0 0 0 0 1 0 "
       id="feColorMatrix4611"
       result="fbSourceGraphic" /><feColorMatrix
       result="fbSourceGraphicAlpha"
       in="fbSourceGraphic"
       values="0 0 0 -1 0 0 0 0 -1 0 0 0 0 -1 0 0 0 0 1 0"
       id="feColorMatrix4867" /><feColorMatrix
       id="feColorMatrix4869"
       values="0 0.52 0.072 -0.05 0 0 0.52 0.072 -0.05 0 0 0.52 0.072 -0.05 0 0 0 0 1 0 "
       in="fbSourceGraphic" /></filter><filter
     style="color-interpolation-filters:sRGB;"
     inkscape:label="Greyscale"
     id="filter4617"><feColorMatrix
       values="0.21 0.72 0.072 -0.05 0 0.21 0.72 0.072 -0.05 0 0.21 0.72 0.072 -0.05 0 0 0 0 1 0 "
       id="feColorMatrix4615"
       result="fbSourceGraphic" /><feColorMatrix
       result="fbSourceGraphicAlpha"
       in="fbSourceGraphic"
       values="0 0 0 -1 0 0 0 0 -1 0 0 0 0 -1 0 0 0 0 1 0"
       id="feColorMatrix4871" /><feColorMatrix
       id="feColorMatrix4873"
       values="0 0.52 0.072 -0.05 0 0 0.52 0.072 -0.05 0 0 0.52 0.072 -0.05 0 0 0 0 1 0 "
       in="fbSourceGraphic" /></filter><filter
     style="color-interpolation-filters:sRGB;"
     inkscape:label="Greyscale"
     id="filter4621"><feColorMatrix
       values="0.21 0.72 0.072 -0.05 0 0.21 0.72 0.072 -0.05 0 0.21 0.72 0.072 -0.05 0 0 0 0 1 0 "
       id="feColorMatrix4619"
       result="fbSourceGraphic" /><feColorMatrix
       result="fbSourceGraphicAlpha"
       in="fbSourceGraphic"
       values="0 0 0 -1 0 0 0 0 -1 0 0 0 0 -1 0 0 0 0 1 0"
       id="feColorMatrix4875" /><feColorMatrix
       id="feColorMatrix4877"
       values="0 0.52 0.072 -0.05 0 0 0.52 0.072 -0.05 0 0 0.52 0.072 -0.05 0 0 0 0 1 0 "
       in="fbSourceGraphic" /></filter></defs><sodipodi:namedview
   pagecolor="#ffffff"
   bordercolor="#666666"
   borderopacity="1"
   objecttolerance="10"
   gridtolerance="10"
   guidetolerance="10"
   inkscape:pageopacity="0"
   inkscape:pageshadow="2"
   inkscape:window-width="3840"
   inkscape:window-height="2066"
   id="namedview45"
   showgrid="false"
   inkscape:zoom="1.328122"
   inkscape:cx="332.44649"
   inkscape:cy="161.14321"
   inkscape:window-x="-11"
   inkscape:window-y="-11"
   inkscape:window-maximized="1"
   inkscape:current-layer="Layer_1" />
<path
   style="fill:#84DBFF;filter:url(#filter4621)"
   d="M336.98,141.061c-3.135-12.539-8.359-25.078-14.629-36.571l12.539-29.257l-43.886-42.841  l-29.257,12.539c-11.494-6.269-22.988-11.494-36.571-14.629L214.727,0h-61.649l-11.494,30.302  c-12.539,3.135-25.078,8.359-36.571,14.629L75.755,32.392L32.914,75.233l12.539,29.257c-6.269,11.494-11.494,22.988-14.629,36.571  L0.522,152.555v61.649l30.302,11.494c3.135,12.539,8.359,25.078,14.629,36.571l-12.539,29.257L76.8,334.367l29.257-12.539  c11.494,6.269,22.988,11.494,36.571,14.629l11.494,30.302h60.604l11.494-30.302c12.539-3.135,25.078-8.359,36.571-14.629  l29.257,12.539l43.886-42.841l-12.539-29.257c6.269-11.494,11.494-22.988,14.629-36.571l30.302-11.494v-61.649L336.98,141.061z   M183.38,258.09c-41.796,0-75.233-33.437-75.233-75.233s33.437-75.233,75.233-75.233s75.233,33.437,75.233,75.233  S225.176,258.09,183.38,258.09z"
   id="path2" />
<g
   id="g8"
   style="filter:url(#filter4617)">
	<path
   style="fill:#54C0EB;"
   d="M236.669,236.147c-29.257,29.257-76.278,29.257-105.535,0l-27.167,27.167   c43.886,43.886,115.984,43.886,159.869,0s43.886-114.939,0-159.869l-27.167,27.167C265.927,159.869,265.927,206.89,236.669,236.147   z"
   id="path4" />
	<path
   style="fill:#54C0EB;"
   d="M103.967,103.445c-43.886,43.886-43.886,114.939,0,159.869l27.167-27.167   c-29.257-29.257-29.257-76.278,0-105.535s76.278-29.257,105.535,0l27.167-27.167C219.951,59.559,147.853,59.559,103.967,103.445z"
   id="path6" />
</g>
<path
   style="fill:#4CDBC4;filter:url(#filter4613)"
   d="M354.743,428.408c1.045-6.269,1.045-11.494,0-17.763l10.449-10.449l-10.449-26.122h-14.629  c-3.135-4.18-8.359-8.359-12.539-12.539v-14.629l-26.122-10.449l-10.449,10.449c-6.269-1.045-11.494-1.045-17.763,0l-10.449-10.449  l-26.122,10.449v14.629c-4.18,3.135-8.359,8.359-12.539,12.539h-14.629l-10.449,26.122l10.449,10.449  c-1.045,6.269-1.045,11.494,0,17.763l-10.449,10.449l10.449,26.122h14.629c3.135,4.18,8.359,8.359,12.539,12.539v14.629  l26.122,10.449l10.449-10.449c6.269,1.045,11.494,1.045,17.763,0l10.449,10.449l26.122-10.449v-14.629  c4.18-3.135,8.359-8.359,12.539-12.539h14.629l10.449-26.122L354.743,428.408z M271.151,450.351  c-17.763-7.314-26.122-27.167-18.808-43.886c7.314-17.763,27.167-26.122,43.886-18.808c17.763,7.314,26.122,27.167,18.808,43.886  C307.722,449.306,287.869,457.665,271.151,450.351z"
   id="path10" />
<path
   style="fill:#FF7058;filter:url(#filter4609)"
   d="M491.624,291.527c1.045-6.269,1.045-11.494,0-17.763l10.449-10.449l-10.449-26.122h-14.629  c-3.135-4.18-8.359-8.359-12.539-12.539v-14.629l-26.122-10.449l-10.449,10.449c-6.269-1.045-11.494-1.045-17.763,0l-10.449-10.449  l-26.122,10.449v14.629c-4.18,3.135-8.359,8.359-12.539,12.539h-14.629l-10.449,26.122l10.449,10.449  c-1.045,6.269-1.045,11.494,0,17.763l-10.449,10.449l10.449,26.122h14.629c3.135,4.18,8.359,8.359,12.539,12.539v14.629  l26.122,10.449l10.449-10.449c6.269,1.045,11.494,1.045,17.763,0l10.449,10.449l26.122-10.449v-14.629  c4.18-3.135,8.359-8.359,12.539-12.539h14.629l10.449-26.122L491.624,291.527z M406.988,314.514  c-17.763-7.314-26.122-27.167-18.808-43.886c7.314-17.763,27.167-26.122,43.886-18.808c17.763,7.314,26.122,27.167,18.808,43.886  C444.604,313.469,424.751,321.829,406.988,314.514z"
   id="path12" />
<g
   id="g14">
</g>
<g
   id="g16">
</g>
<g
   id="g18">
</g>
<g
   id="g20">
</g>
<g
   id="g22">
</g>
<g
   id="g24">
</g>
<g
   id="g26">
</g>
<g
   id="g28">
</g>
<g
   id="g30">
</g>
<g
   id="g32">
</g>
<g
   id="g34">
</g>
<g
   id="g36">
</g>
<g
   id="g38">
</g>
<g
   id="g40">
</g>
<g
   id="g42">
</g>
</svg>