<?xml version="1.0" encoding="UTF-8" standalone="no"?>
<!-- Created with Inkscape (http://www.inkscape.org/) -->

<svg
        xmlns:dc="http://purl.org/dc/elements/1.1/"
        xmlns:cc="http://creativecommons.org/ns#"
        xmlns:rdf="http://www.w3.org/1999/02/22-rdf-syntax-ns#"
        xmlns="http://www.w3.org/2000/svg"
        xmlns:sodipodi="http://sodipodi.sourceforge.net/DTD/sodipodi-0.dtd"
        xmlns:inkscape="http://www.inkscape.org/namespaces/inkscape"
        width="157.95291mm"
        height="158.00137mm"
        viewBox="0 0 157.95291 158.00137"
        version="1.1"
        id="svg8"
        inkscape:version="0.92.3 (2405546, 2018-03-11)"
        sodipodi:docname="btn_lidar.svg">
  <defs
     id="defs2" />
  <sodipodi:namedview
     id="base"
     pagecolor="#ffffff"
     bordercolor="#666666"
     borderopacity="1.0"
     inkscape:pageopacity="0.0"
     inkscape:pageshadow="2"
     inkscape:zoom="0.49497475"
     inkscape:cx="585.1808"
     inkscape:cy="-298.10215"
     inkscape:document-units="mm"
     inkscape:current-layer="layer1"
     showgrid="false"
     fit-margin-top="0"
     fit-margin-left="0"
     fit-margin-right="0"
     fit-margin-bottom="0"
     inkscape:window-width="3840"
     inkscape:window-height="2066"
     inkscape:window-x="-11"
     inkscape:window-y="-11"
     inkscape:window-maximized="1" />
  <metadata
     id="metadata5">
    <rdf:RDF>
      <cc:Work
         rdf:about="">
        <dc:format>image/svg+xml</dc:format>
        <dc:type
           rdf:resource="http://purl.org/dc/dcmitype/StillImage" />
        <dc:title></dc:title>
      </cc:Work>
    </rdf:RDF>
  </metadata>
  <g
     inkscape:label="Ebene 1"
     inkscape:groupmode="layer"
     id="layer1"
     transform="translate(-36.863353,-109.31614)">
    <path
       style="fill:#146dc9;fill-opacity:1;stroke-width:0.35277778"
       d="m 68.397766,266.95442 c -8.69446,-0.96696 -15.58091,-4.15991 -21.29422,-9.87323 -5.1087,-5.10869 -7.89074,-10.42971 -9.47347,-18.11922 -0.51716,-2.51259 -0.59575,-7.77641 -0.71628,-47.97778 -0.14142,-47.16215 -0.0717,-50.01213 1.36693,-55.91527 2.86436,-11.75297 12.56293,-21.44975 24.29621,-24.29172 5.72004,-1.38548 8.47574,-1.46106 53.269444,-1.46106 44.79371,0 47.54941,0.0756 53.26945,1.46106 10.76191,2.60669 20.08077,11.17659 23.60191,21.70503 1.98119,5.92388 1.91725,4.27384 2.06192,53.2103 0.0916,30.98182 0.0126,46.37361 -0.25166,49.03611 -0.95639,9.63588 -3.94616,16.35994 -9.93878,22.35255 -5.91775,5.91775 -12.47931,8.88662 -21.89768,9.90792 -4.23149,0.45885 -90.140274,0.42725 -94.293774,-0.0347 z m 49.636114,-35.26827 c 5.30626,-1.12587 8.85929,-4.72244 9.82476,-9.94515 0.95517,-5.16701 -1.87822,-10.60705 -6.72059,-12.90337 -1.6678,-0.79089 -2.41092,-0.9201 -5.29167,-0.9201 -3.0081,0 -3.56074,0.10608 -5.39531,1.03564 -2.38767,1.20982 -4.58494,3.45421 -5.66016,5.78155 -1.08715,2.35314 -1.09155,7.6394 -0.008,9.98293 1.54053,3.33288 4.53572,5.80147 8.25012,6.79962 2.40847,0.64721 2.70032,0.65707 5.00117,0.16888 z m -12.77083,-29.05337 c 6.227,-5.90575 14.80781,-5.8523 21.62817,0.13471 1.12695,0.98926 2.29728,1.79865 2.60074,1.79865 0.30346,0 1.88172,-1.29816 3.50725,-2.8848 2.88338,-2.8144 2.95551,-2.92557 2.95551,-4.55556 0,-1.52912 -0.14207,-1.80902 -1.6757,-3.30159 -8.69043,-8.45771 -21.6845,-9.95115 -32.02978,-3.68125 -1.06435,0.64506 -2.880684,2.05073 -4.036294,3.12371 -2.1282,1.97602 -2.30617,2.39367 -2.15786,5.06387 0.042,0.75685 3.62393,4.63522 5.149834,5.57609 1.34842,0.83144 2.08072,0.60157 4.05813,-1.27383 z M 88.617486,189.77309 c 0.32679,-0.18105 1.54667,-1.22528 2.71084,-2.32053 11.701654,-11.00895 29.732134,-12.85725 43.395884,-4.4485 1.55116,0.95459 4.13062,2.9422 5.73212,4.4169 1.60151,1.47471 3.06197,2.68129 3.24546,2.68129 0.85185,0 2.15534,-1.02821 4.51826,-3.56408 2.49928,-2.68221 2.55955,-2.78984 2.38986,-4.26806 -0.15364,-1.33838 -0.47546,-1.79845 -2.74033,-3.91753 -8.68713,-8.12793 -19.97055,-12.58784 -31.84681,-12.58784 -12.14471,0 -23.997074,4.75376 -32.367364,12.98193 -2.23437,2.19644 -2.38125,2.43792 -2.38125,3.9151 0,1.50245 0.13385,1.70814 2.9331,4.50738 2.97202,2.97202 3.34659,3.19318 4.41023,2.60394 z m -11.14165,-17.4984 c 11.74782,-10.81971 26.927244,-16.14599 42.639794,-14.96178 7.68302,0.57904 13.79303,2.27593 20.95436,5.8195 5.09822,2.5227 9.18111,5.32089 13.74362,9.41914 1.87384,1.68317 3.34617,2.73403 3.83057,2.73403 0.51445,0 1.75694,-0.97585 3.58942,-2.81914 2.75783,-2.7741 2.80146,-2.84565 2.7304,-4.47828 -0.0828,-1.90255 -0.74367,-2.71235 -5.54956,-6.80026 -10.10223,-8.59299 -22.66145,-14.05035 -35.80452,-15.55816 -5.73718,-0.65819 -15.7117,-0.24343 -21.03385,0.87462 -12.733564,2.67501 -23.685574,8.43881 -33.384554,17.56955 -2.3102,2.17486 -2.38125,2.29326 -2.38125,3.96863 0,1.68488 0.0671,1.79396 2.75808,4.48496 2.06231,2.06231 2.99525,2.75808 3.6982,2.75808 0.68952,0 1.81158,-0.8026 4.20929,-3.01089 z"
       id="path850"
       inkscape:connector-curvature="0" />
  </g>
</svg>
